<svg width="1201" height="48" viewBox="0 0 1201 48" fill="none" xmlns="http://www.w3.org/2000/svg">
<path d="M13.5 42.5601C10.5156 42.5601 8.17969 42.1304 6.49219 41.271C4.82031 40.4116 3.78125 38.7319 3.375 36.2319C3.125 34.7476 3 32.8569 3 30.5601V29.0601H7.5V30.5601C7.5 34.1226 7.9375 36.4507 8.8125 37.5444C9.29688 38.1382 9.92188 38.5132 10.6875 38.6694C11.4688 38.8257 12.4062 38.9038 13.5 38.9038H24C26.7031 38.9038 28.625 38.4272 29.7656 37.4741C30.9219 36.5054 31.5 34.7007 31.5 32.0601V6.56006H36V32.0601C36 35.8726 35.125 38.5601 33.375 40.1226C31.5625 41.7476 28.4375 42.5601 24 42.5601H13.5ZM41.7188 42.5601L62.7188 6.56006H68.7188L89.7188 42.5601H84.4688L79.9688 34.3101H51.4688L46.9688 42.5601H41.7188ZM53.7188 30.5601H77.7188L65.7188 9.56006L53.7188 30.5601ZM112.219 42.5601L92.8125 6.56006H97.9688L115.219 39.3726L132.469 6.56006H137.555L118.219 42.5601H112.219ZM140.719 42.5601L161.719 6.56006H167.719L188.719 42.5601H183.469L178.969 34.3101H150.469L145.969 42.5601H140.719ZM152.719 30.5601H176.719L164.719 9.56006L152.719 30.5601ZM233.039 32.1538C233.039 30.7632 232.93 29.6694 232.711 28.8726C232.492 28.0757 232 27.4897 231.234 27.1147C230.469 26.7241 229.281 26.4741 227.672 26.3647C226.062 26.2397 223.859 26.1538 221.062 26.1069L208.031 25.9194C204.812 25.8726 202.227 25.6772 200.273 25.3335C198.32 24.9897 196.844 24.4507 195.844 23.7163C194.844 22.9663 194.172 21.9663 193.828 20.7163C193.5 19.4663 193.336 17.9038 193.336 16.0288C193.336 13.9819 193.562 12.2944 194.016 10.9663C194.484 9.63818 195.32 8.59912 196.523 7.84912C197.742 7.09912 199.461 6.57568 201.68 6.27881C203.898 5.96631 206.766 5.81006 210.281 5.81006H220.312C223.5 5.81006 226.156 5.91162 228.281 6.11475C230.406 6.31787 232.094 6.78662 233.344 7.521C234.594 8.25537 235.484 9.396 236.016 10.9429C236.562 12.4897 236.836 14.6147 236.836 17.3179H232.336C232.336 15.2241 232.133 13.646 231.727 12.5835C231.336 11.5054 230.68 10.771 229.758 10.3804C228.852 9.98975 227.625 9.77881 226.078 9.74756C224.531 9.71631 222.609 9.70068 220.312 9.70068H210.516C207.719 9.70068 205.477 9.75537 203.789 9.86475C202.117 9.97412 200.852 10.2241 199.992 10.6147C199.133 11.0054 198.555 11.6304 198.258 12.4897C197.977 13.3491 197.836 14.5288 197.836 16.0288C197.836 17.2944 197.938 18.3101 198.141 19.0757C198.344 19.8413 198.797 20.4272 199.5 20.8335C200.219 21.2241 201.32 21.4976 202.805 21.6538C204.289 21.7944 206.312 21.8804 208.875 21.9116L222.844 22.0991C226.125 22.146 228.742 22.3413 230.695 22.6851C232.664 23.0132 234.133 23.5522 235.102 24.3022C236.086 25.0522 236.734 26.0679 237.047 27.3491C237.375 28.6147 237.539 30.2163 237.539 32.1538C237.539 34.2632 237.336 36.0366 236.93 37.4741C236.539 38.896 235.773 40.0366 234.633 40.896C233.492 41.7554 231.844 42.3726 229.688 42.7476C227.531 43.1226 224.695 43.3101 221.18 43.3101H210.211C207.008 43.3101 204.32 43.1694 202.148 42.8882C199.977 42.6069 198.242 42.0444 196.945 41.2007C195.664 40.3413 194.742 39.0679 194.18 37.3804C193.617 35.6929 193.336 33.4429 193.336 30.6304H197.836C197.836 32.8335 198.016 34.5366 198.375 35.7397C198.734 36.9429 199.359 37.8101 200.25 38.3413C201.156 38.8569 202.414 39.1694 204.023 39.2788C205.648 39.3726 207.711 39.4194 210.211 39.4194H220.945C223.742 39.4194 225.953 39.3335 227.578 39.1616C229.203 38.9741 230.406 38.6304 231.188 38.1304C231.969 37.6147 232.469 36.8804 232.688 35.9272C232.922 34.9741 233.039 33.7163 233.039 32.1538ZM243.422 25.0288V24.0913C243.422 20.9038 243.578 18.2319 243.891 16.0757C244.203 13.9038 244.742 12.1382 245.508 10.7788C246.273 9.41943 247.312 8.38037 248.625 7.66162C249.953 6.94287 251.617 6.4585 253.617 6.2085C255.617 5.94287 258.023 5.81006 260.836 5.81006H270.281C273.5 5.81006 276.211 5.96631 278.414 6.27881C280.633 6.57568 282.414 7.17725 283.758 8.0835C285.117 8.97412 286.102 10.2944 286.711 12.0444C287.32 13.7788 287.625 16.0835 287.625 18.9585H283.125C283.125 16.6929 282.922 14.9351 282.516 13.6851C282.109 12.4194 281.422 11.5054 280.453 10.9429C279.5 10.3804 278.195 10.0366 276.539 9.91162C274.883 9.771 272.797 9.70068 270.281 9.70068H260.836C258.602 9.70068 256.719 9.771 255.188 9.91162C253.656 10.0366 252.406 10.3413 251.438 10.8257C250.484 11.2944 249.75 12.0444 249.234 13.0757C248.734 14.1069 248.391 15.5132 248.203 17.2944C248.016 19.0757 247.922 21.3413 247.922 24.0913V25.0288C247.922 27.6851 248.016 29.8882 248.203 31.6382C248.391 33.3882 248.734 34.7866 249.234 35.8335C249.75 36.8804 250.484 37.6616 251.438 38.1772C252.406 38.6929 253.656 39.0288 255.188 39.1851C256.719 39.3413 258.602 39.4194 260.836 39.4194H270.281C272.797 39.4194 274.883 39.3647 276.539 39.2554C278.195 39.146 279.5 38.8257 280.453 38.2944C281.422 37.7632 282.109 36.8804 282.516 35.646C282.922 34.396 283.125 32.646 283.125 30.396H287.625C287.625 33.271 287.32 35.5679 286.711 37.2866C286.102 39.0054 285.117 40.3022 283.758 41.1772C282.414 42.0366 280.633 42.6069 278.414 42.8882C276.211 43.1694 273.5 43.3101 270.281 43.3101H260.836C257.32 43.3101 254.43 43.0679 252.164 42.5835C249.898 42.1147 248.125 41.2397 246.844 39.9585C245.578 38.6772 244.688 36.8335 244.172 34.4272C243.672 32.021 243.422 28.8882 243.422 25.0288ZM295.312 6.56006H319.406C322.922 6.56006 325.75 6.71631 327.891 7.02881C330.047 7.34131 331.68 7.88037 332.789 8.646C333.898 9.41162 334.648 10.4585 335.039 11.7866C335.43 13.1147 335.625 14.7944 335.625 16.8257V17.7632C335.625 19.6382 335.398 21.2554 334.945 22.6147C334.508 23.9585 333.656 25.0522 332.391 25.896C331.125 26.7241 329.25 27.3101 326.766 27.6538L334.594 42.5601H330.094L322.43 27.9819C322.117 27.9976 321.789 28.0054 321.445 28.0054C321.117 28.0054 320.773 28.0054 320.414 28.0054H299.812V42.5601H295.312V6.56006ZM299.812 24.1147H319.711C322.383 24.1147 324.484 24.0288 326.016 23.8569C327.562 23.6694 328.695 23.3491 329.414 22.896C330.148 22.4429 330.617 21.8022 330.82 20.9741C331.023 20.146 331.125 19.0757 331.125 17.7632V16.8257C331.125 15.3413 330.984 14.1694 330.703 13.3101C330.422 12.4507 329.859 11.8179 329.016 11.4116C328.172 11.0054 326.914 10.7476 325.242 10.6382C323.57 10.5132 321.336 10.4507 318.539 10.4507H299.812V24.1147ZM344.156 42.5601V6.56006H348.656V42.5601H344.156ZM357.75 42.5601V6.56006H381.844C385.359 6.56006 388.188 6.73193 390.328 7.07568C392.484 7.41943 394.117 7.99756 395.227 8.81006C396.336 9.60693 397.086 10.6929 397.477 12.0679C397.867 13.4272 398.062 15.1226 398.062 17.1538V18.0913C398.062 20.0288 397.859 21.6772 397.453 23.0366C397.062 24.3804 396.297 25.4663 395.156 26.2944C394.016 27.1226 392.367 27.7319 390.211 28.1226C388.055 28.4976 385.219 28.6851 381.703 28.6851H362.25V42.5601H357.75ZM393.562 17.1538C393.562 15.6694 393.422 14.4819 393.141 13.5913C392.859 12.7007 392.297 12.0288 391.453 11.5757C390.609 11.1226 389.352 10.8257 387.68 10.6851C386.008 10.5288 383.773 10.4507 380.977 10.4507H362.25V24.7944H380.977C383.773 24.7944 386.008 24.7085 387.68 24.5366C389.352 24.3491 390.609 24.021 391.453 23.5522C392.297 23.0679 392.859 22.3882 393.141 21.5132C393.422 20.6226 393.562 19.4819 393.562 18.0913V17.1538ZM420.047 42.5601V10.3101H402.047V6.56006H442.547V10.3101H424.547V42.5601H420.047Z" fill="#3A3A3A"/>
<path d="M472.727 23.8328H468.364V32.5601H464V10.7419H477.091V19.4691H472.727V15.1055H468.364V19.4691H472.727V23.8328ZM472.727 23.8328H477.091V32.5601H472.727V23.8328ZM485.801 28.1964H494.528V32.5601H481.438V10.7419H494.528V15.1055H485.801V19.4691H490.165V23.8328H485.801V28.1964ZM503.239 10.7419H507.602V15.1055H503.239V10.7419ZM503.239 19.4691H507.602V15.1055H511.966V32.5601H507.602V23.8328H503.239V32.5601H498.875V15.1055H503.239V19.4691ZM520.676 28.1964H525.04V32.5601H516.312V10.7419H525.04V15.1055H520.676V28.1964ZM533.754 15.1055H529.391V10.7419H542.482V15.1055H538.118V32.5601H533.754V15.1055ZM546.828 28.1964H551.192V32.5601H546.828V28.1964ZM559.911 10.7419H564.274V28.1964H559.911V10.7419ZM555.547 28.1964H559.911V32.5601H555.547V28.1964ZM568.625 28.1964H577.352V23.8328H568.625V10.7419H581.716V15.1055H572.989V19.4691H581.716V32.5601H568.625V28.1964Z" fill="#3A3A3A"/>
<path d="M622.968 43.0401C620.344 43.0401 618.088 42.5921 616.2 41.6961C614.344 40.7681 612.92 39.5041 611.928 37.9041C610.936 36.3041 610.44 34.4801 610.44 32.4321C610.44 30.2881 611.048 28.6081 612.264 27.3921C613.512 26.1441 615.064 25.5201 616.92 25.5201C618.744 25.5201 620.232 26.0641 621.384 27.1521C622.536 28.2401 623.112 29.6801 623.112 31.4721C623.112 31.6641 623.016 31.7601 622.824 31.7601C622.632 31.7601 622.536 31.6641 622.536 31.4721C622.536 29.8401 622.008 28.5441 620.952 27.5841C619.928 26.5921 618.584 26.0961 616.92 26.0961C615.224 26.0961 613.816 26.6561 612.696 27.7761C611.576 28.8961 611.016 30.4481 611.016 32.4321C611.016 35.4081 612.056 37.8241 614.136 39.6801C616.248 41.5361 619.192 42.4641 622.968 42.4641C626.712 42.4641 629.624 41.4721 631.704 39.4881C633.816 37.5041 634.872 34.6721 634.872 30.9921V10.2081C634.872 8.80006 634.488 7.71206 633.72 6.94406C632.952 6.17606 631.864 5.79206 630.456 5.79206H627.576C626.168 5.79206 625.064 6.17606 624.264 6.94406C623.496 7.71206 623.112 8.80006 623.112 10.2081V16.1121C623.112 16.3041 623.016 16.4001 622.824 16.4001C622.632 16.4001 622.536 16.3041 622.536 16.1121V10.2081C622.536 8.60806 622.984 7.37606 623.88 6.51206C624.776 5.64806 626.008 5.21606 627.576 5.21606H630.456C632.056 5.21606 633.288 5.66406 634.152 6.56006C635.016 7.42406 635.448 8.64006 635.448 10.2081V30.9921C635.448 34.8321 634.344 37.8081 632.136 39.9201C629.928 42.0001 626.872 43.0401 622.968 43.0401ZM664.443 43.0401C663.259 43.0081 662.107 42.6721 660.987 42.0321C659.899 41.3921 659.035 40.2721 658.395 38.6721L656.619 34.3521H653.595C653.435 34.3521 653.355 34.2561 653.355 34.0641C653.355 33.8721 653.435 33.7761 653.595 33.7761H656.859C656.955 33.7761 657.035 33.8401 657.099 33.9681L658.923 38.4801C659.499 39.9201 660.283 40.9441 661.275 41.5521C662.299 42.1281 663.355 42.4321 664.443 42.4641C665.563 42.4321 666.651 42.2401 667.707 41.8881C668.795 41.5041 669.691 40.9121 670.395 40.1121C671.131 39.3121 671.515 38.2881 671.547 37.0401C671.579 36.0801 671.467 35.2321 671.211 34.4961C670.987 33.7281 670.763 33.0721 670.539 32.5281L661.947 10.4001C661.371 8.89606 660.507 7.74406 659.355 6.94406C658.235 6.14406 656.891 5.72806 655.323 5.69606C653.595 5.69606 652.171 6.11206 651.051 6.94406C649.931 7.74406 649.067 8.89606 648.459 10.4001L639.051 34.4481C638.667 35.4401 638.555 36.4321 638.715 37.4241C638.875 38.4161 639.259 39.3121 639.867 40.1121C640.475 40.8801 641.259 41.4401 642.219 41.7921L643.755 42.3681C643.947 42.4321 644.011 42.5601 643.947 42.7521C643.883 42.9121 643.739 42.9601 643.515 42.8961L641.979 42.3201C640.923 41.9041 640.059 41.2641 639.387 40.4001C638.747 39.5361 638.331 38.5601 638.139 37.4721C637.979 36.3841 638.107 35.3121 638.523 34.2561L647.931 10.2081C648.571 8.57606 649.499 7.32806 650.715 6.46406C651.963 5.56806 653.499 5.12006 655.323 5.12006C656.987 5.15206 658.443 5.60006 659.691 6.46406C660.939 7.32806 661.867 8.57606 662.475 10.2081L671.067 32.3361C671.291 32.8801 671.531 33.5521 671.787 34.3521C672.043 35.1521 672.155 36.0481 672.123 37.0401C672.091 38.4161 671.675 39.5521 670.875 40.4481C670.107 41.3441 669.131 42.0001 667.947 42.4161C666.795 42.8321 665.627 43.0401 664.443 43.0401ZM686.843 43.0401C686.107 43.0401 685.291 42.8961 684.395 42.6081C683.531 42.3201 682.699 41.8401 681.899 41.1681C681.131 40.4641 680.475 39.5201 679.931 38.3361L669.851 15.5841C668.955 13.5681 668.763 11.6321 669.275 9.77606C669.819 7.92006 671.067 6.56006 673.019 5.69606L673.787 5.36006C675.867 4.43206 677.739 4.43206 679.403 5.36006C681.099 6.25606 682.363 7.71206 683.195 9.72806C683.259 9.82406 683.243 9.92006 683.147 10.0161C683.083 10.0801 683.003 10.1121 682.907 10.1121C682.747 10.1121 682.651 10.0481 682.619 9.92006C681.819 8.06406 680.683 6.72006 679.211 5.88806C677.739 5.02406 676.011 5.02406 674.027 5.88806L673.259 6.22406C671.435 7.02406 670.299 8.28806 669.851 10.0161C669.403 11.7441 669.579 13.5361 670.379 15.3921L680.459 38.1441C681.195 39.7761 682.171 40.9121 683.387 41.5521C684.603 42.1601 685.755 42.4641 686.843 42.4641C687.931 42.4641 689.099 42.1601 690.347 41.5521C691.595 40.9441 692.571 39.8081 693.275 38.1441L702.827 15.4401C703.627 13.5841 703.803 11.8081 703.355 10.1121C702.907 8.38406 701.787 7.10406 699.995 6.27206L699.275 5.93606C697.995 5.32806 696.763 5.12006 695.579 5.31206C694.395 5.50406 693.355 6.00006 692.459 6.80006C691.563 7.60006 690.859 8.62406 690.347 9.87206L685.931 20.8161C685.899 20.9121 685.819 20.9601 685.691 20.9601C685.435 20.9601 685.339 20.8481 685.403 20.6241L689.819 9.68006C690.363 8.30406 691.131 7.18406 692.123 6.32006C693.115 5.45606 694.235 4.92806 695.483 4.73606C696.763 4.54406 698.091 4.76806 699.467 5.40806L700.187 5.74406C702.139 6.64006 703.371 8.00006 703.883 9.82406C704.395 11.6481 704.219 13.5841 703.355 15.6321L693.803 38.3361C693.291 39.5521 692.619 40.5121 691.787 41.2161C690.987 41.8881 690.155 42.3521 689.291 42.6081C688.427 42.8961 687.611 43.0401 686.843 43.0401ZM727.396 43.0401C726.212 43.0081 725.06 42.6721 723.94 42.0321C722.852 41.3921 721.988 40.2721 721.348 38.6721L719.572 34.3521H716.548C716.388 34.3521 716.308 34.2561 716.308 34.0641C716.308 33.8721 716.388 33.7761 716.548 33.7761H719.812C719.908 33.7761 719.988 33.8401 720.052 33.9681L721.876 38.4801C722.452 39.9201 723.236 40.9441 724.228 41.5521C725.252 42.1281 726.308 42.4321 727.396 42.4641C728.516 42.4321 729.604 42.2401 730.66 41.8881C731.748 41.5041 732.644 40.9121 733.348 40.1121C734.084 39.3121 734.468 38.2881 734.5 37.0401C734.532 36.0801 734.42 35.2321 734.164 34.4961C733.94 33.7281 733.716 33.0721 733.492 32.5281L724.9 10.4001C724.324 8.89606 723.46 7.74406 722.308 6.94406C721.188 6.14406 719.844 5.72806 718.276 5.69606C716.548 5.69606 715.124 6.11206 714.004 6.94406C712.884 7.74406 712.02 8.89606 711.412 10.4001L702.004 34.4481C701.62 35.4401 701.508 36.4321 701.668 37.4241C701.828 38.4161 702.212 39.3121 702.82 40.1121C703.428 40.8801 704.212 41.4401 705.172 41.7921L706.708 42.3681C706.9 42.4321 706.964 42.5601 706.9 42.7521C706.836 42.9121 706.692 42.9601 706.468 42.8961L704.932 42.3201C703.876 41.9041 703.012 41.2641 702.34 40.4001C701.7 39.5361 701.284 38.5601 701.092 37.4721C700.932 36.3841 701.06 35.3121 701.476 34.2561L710.884 10.2081C711.524 8.57606 712.452 7.32806 713.668 6.46406C714.916 5.56806 716.452 5.12006 718.276 5.12006C719.94 5.15206 721.396 5.60006 722.644 6.46406C723.892 7.32806 724.82 8.57606 725.428 10.2081L734.02 32.3361C734.244 32.8801 734.484 33.5521 734.74 34.3521C734.996 35.1521 735.108 36.0481 735.076 37.0401C735.044 38.4161 734.628 39.5521 733.828 40.4481C733.06 41.3441 732.084 42.0001 730.9 42.4161C729.748 42.8321 728.58 43.0401 727.396 43.0401Z" fill="#616161"/>
<path d="M779.248 23.8721L782.656 23.8241V25.7921C782.272 25.7281 781.824 25.6961 781.312 25.6961C780.8 25.6961 780.224 25.7281 779.584 25.7921C779.584 28.2561 778.4 30.7521 776.032 33.2801C773.664 35.8081 770.8 37.8561 767.44 39.4241C764.112 41.0241 761.008 41.8241 758.128 41.8241C756.624 41.8241 755.392 41.4401 754.432 40.6721C753.504 39.9041 753.04 38.8961 753.04 37.6481C753.04 35.7921 754.272 33.8561 756.736 31.8401C759.2 29.8241 762.08 28.1601 765.376 26.8481C768.672 25.5361 771.648 24.7681 774.304 24.5441C773.984 24.0641 773.488 23.6481 772.816 23.2961C772.144 22.9441 770.768 22.4001 768.688 21.6641C766.608 20.8961 765.136 20.0641 764.272 19.1681C763.408 18.2401 762.976 16.9441 762.976 15.2801C762.976 13.6161 763.872 11.7121 765.664 9.56806C767.456 7.42406 769.568 5.63206 772 4.19206C774.464 2.72006 776.624 1.98406 778.48 1.98406C779.312 1.98406 780 2.28806 780.544 2.89606C781.088 3.47206 781.36 4.19206 781.36 5.05606C781.36 6.46406 780.512 8.24006 778.816 10.3841C777.12 12.4961 775.232 14.1121 773.152 15.2321L772 13.6001C773.248 12.9601 774.336 11.9681 775.264 10.6241C776.224 9.24806 776.704 8.06406 776.704 7.07206C776.704 6.08006 776.176 5.58406 775.12 5.58406C773.616 5.58406 771.888 6.52806 769.936 8.41606C768.016 10.2721 767.056 12.0161 767.056 13.6481C767.056 14.7681 767.344 15.6481 767.92 16.2881C768.496 16.9281 769.952 17.7281 772.288 18.6881C774.624 19.6161 776.288 20.4481 777.28 21.1841C778.272 21.8881 778.928 22.7841 779.248 23.8721ZM757.84 36.4001C757.84 37.9361 759.088 38.7041 761.584 38.7041C762.96 38.7041 764.736 38.1921 766.912 37.1681C769.12 36.1761 771.056 34.7681 772.72 32.9441C774.416 31.1521 775.264 29.3121 775.264 27.4241C775.264 27.2001 775.216 26.8641 775.12 26.4161C770.736 26.8321 766.752 28.0641 763.168 30.1121C759.616 32.1601 757.84 34.2561 757.84 36.4001ZM801.422 6.16006C804.046 4.36806 805.838 3.28006 806.798 2.89606C807.758 2.48006 808.878 2.27206 810.158 2.27206C811.47 2.27206 812.478 2.72006 813.182 3.61606C813.886 4.51206 814.238 5.79206 814.238 7.45606C814.238 10.4321 813.278 13.6321 811.358 17.0561C809.438 20.4801 807.038 23.3601 804.158 25.6961C801.278 28.0001 798.558 29.1521 795.998 29.1521C795.358 29.1521 794.622 29.1201 793.79 29.0561C792.222 32.3841 790.798 34.8961 789.518 36.5921C788.238 38.2881 786.958 39.1361 785.678 39.1361C784.878 39.1361 784.254 38.8481 783.806 38.2721C783.358 37.6961 783.134 36.8961 783.134 35.8721C783.134 32.5761 784.654 28.1761 787.694 22.6721C790.734 17.1361 794.078 12.7041 797.726 9.37606C798.238 7.26406 798.494 5.72806 798.494 4.76806C798.494 3.77606 798.462 3.02406 798.398 2.51206L801.854 1.93606C801.854 2.16006 801.71 3.56806 801.422 6.16006ZM790.43 25.6001L791.774 26.2721C793.79 22.3361 795.486 17.9201 796.862 13.0241C793.918 16.7041 791.502 20.4481 789.614 24.2561C787.726 28.0641 786.782 30.9921 786.782 33.0401C786.782 33.6481 786.974 33.9521 787.358 33.9521C787.646 33.9521 788.158 33.3601 788.894 32.1761C789.63 30.9601 790.254 29.7281 790.766 28.4801C790.35 28.2881 789.95 28.0001 789.566 27.6161L790.43 25.6001ZM794.798 26.9441L795.71 26.9921C798.814 26.9921 801.726 25.3601 804.446 22.0961C805.982 20.2081 807.278 18.0481 808.334 15.6161C809.422 13.1841 809.966 11.1201 809.966 9.42406C809.966 8.49606 809.71 7.76006 809.198 7.21606C808.718 6.67206 808.046 6.40006 807.182 6.40006C805.614 6.40006 803.534 7.26406 800.942 8.99206C800.366 13.3121 798.318 19.2961 794.798 26.9441ZM839.688 35.6801L839.927 37.9361C839.032 38.0961 838.248 38.1761 837.576 38.1761C836.072 38.1761 834.632 37.1681 833.256 35.1521C831.88 33.1681 830.792 30.8321 829.992 28.1441C829.224 25.4561 828.744 22.8641 828.552 20.3681C826.952 24.5281 825.432 27.5521 823.992 29.4401C822.584 31.2961 821.128 32.2241 819.624 32.2241C818.856 32.2241 818.248 31.9201 817.8 31.3121C817.352 30.6721 817.128 29.8401 817.128 28.8161C817.128 26.4481 818.216 23.4401 820.392 19.7921C822.6 16.1441 825.176 13.1521 828.12 10.8161C828.184 10.6241 828.456 9.45606 828.936 7.31206C829.448 5.16806 829.752 3.98406 829.848 3.76006L832.632 3.52006C832.632 4.06406 832.488 5.20006 832.2 6.92806C836.52 3.63206 840.072 1.98406 842.856 1.98406C844.168 1.98406 845.208 2.35206 845.976 3.08806C846.744 3.79206 847.128 4.75206 847.128 5.96806C847.128 9.00806 845.592 12.0801 842.52 15.1841C839.448 18.2561 836.168 20.0641 832.68 20.6081C832.936 25.2481 833.736 28.8801 835.08 31.5041C836.456 34.1281 837.992 35.5201 839.688 35.6801ZM825.72 19.6481C826.584 17.3441 827.176 15.5041 827.496 14.1281C825.736 15.7601 824.104 17.9361 822.6 20.6561C821.128 23.3761 820.392 25.3921 820.392 26.7041C820.392 27.3761 820.664 27.7121 821.208 27.7121C822.168 27.7121 823.672 25.0241 825.72 19.6481ZM828.984 18.9761C832.376 18.9761 835.416 17.7921 838.104 15.4241C840.792 13.0561 842.135 10.7041 842.135 8.36806C842.135 7.50406 841.911 6.83206 841.464 6.35206C841.048 5.87206 840.376 5.63206 839.448 5.63206C838.52 5.63206 837.176 6.16006 835.416 7.21606C833.656 8.24006 832.392 9.08806 831.624 9.76006C830.632 13.6961 829.752 16.7681 828.984 18.9761ZM874.428 2.99206C874.972 3.15206 875.244 3.44006 875.244 3.85606C875.244 3.98406 875.052 4.27206 874.668 4.72006C873.196 6.60806 872.156 8.01606 871.548 8.94406C870.972 9.87206 870.268 11.4241 869.436 13.6001C868.636 15.7761 867.9 17.8721 867.228 19.8881C866.588 21.8721 866.268 22.8801 866.268 22.9121C864.956 25.8561 863.148 28.1761 860.844 29.8721C858.54 31.5681 856.124 32.4161 853.596 32.4161C851.804 32.4161 850.348 31.9841 849.228 31.1201C848.14 30.2241 847.596 29.0401 847.596 27.5681C847.596 25.2641 849.084 23.1521 852.06 21.2321C855.036 19.3121 858.012 18.3521 860.988 18.3521L861.18 19.9361C858.812 20.4161 856.764 21.2961 855.036 22.5761C853.34 23.8561 852.492 25.2481 852.492 26.7521C852.492 27.7121 852.764 28.4961 853.308 29.1041C853.884 29.7121 854.604 30.0161 855.468 30.0161C857.1 30.0161 858.508 29.2641 859.692 27.7601C860.876 26.2241 862.076 23.5201 863.292 19.6481C864.54 15.7761 865.66 12.9441 866.652 11.1521C867.676 9.36006 868.956 7.85606 870.492 6.64006C870.044 6.60806 869.548 6.59206 869.004 6.59206C866.252 6.59206 863.564 7.02406 860.94 7.88806C858.348 8.75206 857.052 9.90406 857.052 11.3441C857.052 12.2401 857.452 13.0881 858.252 13.8881L857.196 15.1841C855.052 13.6801 853.98 11.9361 853.98 9.95206C853.98 8.64006 854.54 7.50406 855.66 6.54406C856.812 5.58406 858.348 4.84806 860.268 4.33606C863.948 3.34406 868.076 2.84806 872.652 2.84806C873.644 2.84806 874.236 2.89606 874.428 2.99206ZM906.729 3.23206L909.513 3.56806C908.937 6.06406 908.153 8.99206 907.161 12.3521C906.201 15.6801 905.321 18.3841 904.521 20.4641C903.721 22.5121 902.841 24.5601 901.881 26.6081C900.953 28.6241 899.961 30.2241 898.905 31.4081C897.849 32.5601 896.825 33.1361 895.833 33.1361C894.841 33.1361 894.105 32.7681 893.625 32.0321C893.177 31.2961 892.953 30.0001 892.953 28.1441C892.953 26.2561 893.225 22.3201 893.769 16.3361C894.313 10.3201 894.585 7.05606 894.585 6.54406C894.617 6.00006 894.489 5.72806 894.201 5.72806C893.849 5.72806 893.433 6.22406 892.953 7.21606C892.473 8.17606 892.105 8.91206 891.849 9.42406C891.177 10.9281 890.745 11.9841 890.553 12.5921C888.761 16.6241 887.161 19.9521 885.753 22.5761C884.345 25.2001 882.729 27.6321 880.905 29.8721C880.265 30.6401 879.353 31.4241 878.169 32.2241C876.985 33.0241 875.881 33.6321 874.857 34.0481L873.801 31.2161C876.457 30.0961 878.857 28.1601 881.001 25.4081C883.145 22.6241 885.353 18.7521 887.625 13.7921C889.929 8.83206 891.577 5.48806 892.569 3.76006C893.689 1.93606 894.825 1.02406 895.977 1.02406C896.713 1.02406 897.289 1.28006 897.705 1.79206C898.121 2.30406 898.329 2.97606 898.329 3.80806C898.329 4.60806 898.041 7.96806 897.465 13.8881C896.921 19.8081 896.649 23.6001 896.649 25.2641C896.649 26.9281 896.713 28.0161 896.841 28.5281C897.001 29.0081 897.257 29.2481 897.609 29.2481C898.057 29.2481 898.537 28.7681 899.049 27.8081C900.809 24.3841 903.369 16.1921 906.729 3.23206ZM934.216 32.9441L933.496 34.5761C930.36 34.0321 928.552 33.7441 928.072 33.7121C926.504 37.9681 924.264 41.3281 921.352 43.7921C918.44 46.2561 915.176 47.4881 911.56 47.4881C909.608 47.4881 907.976 46.9601 906.664 45.9041C905.352 44.8481 904.696 43.5361 904.696 41.9681C904.696 39.2161 906.584 36.8001 910.36 34.7201C914.168 32.6401 918.776 31.6001 924.184 31.6001C924.92 31.6001 925.48 31.6161 925.864 31.6481C926.44 30.4321 926.904 29.1361 927.256 27.7601C925.208 29.1361 923.016 29.8241 920.68 29.8241C918.376 29.8241 916.44 29.0081 914.872 27.3761C913.336 25.7121 912.568 23.5361 912.568 20.8481C912.568 18.1281 913.464 15.2801 915.256 12.3041C917.08 9.29606 919.464 6.81606 922.408 4.86406C925.384 2.91206 928.408 1.93606 931.48 1.93606C933.272 1.93606 934.968 2.25606 936.568 2.89606C938.168 3.50406 939.368 4.24006 940.168 5.10406L937.576 8.22406C936.264 7.20006 935.336 6.51206 934.792 6.16006C933.384 5.20006 931.88 4.72006 930.28 4.72006C926.984 4.72006 923.928 6.32006 921.112 9.52006C918.296 12.6881 916.888 16.1441 916.888 19.8881C916.888 21.9361 917.464 23.5521 918.616 24.7361C919.768 25.9201 921.272 26.5121 923.128 26.5121C925.016 26.5121 926.712 26.0641 928.216 25.1681C930.072 20.2721 931.8 17.8241 933.4 17.8241C934.328 17.8241 934.792 18.2721 934.792 19.1681C934.792 20.0641 934.44 21.1041 933.736 22.2881C933.064 23.4401 932.184 24.4801 931.096 25.4081C929.784 28.9281 929.016 31.0401 928.792 31.7441C931.032 32.0001 932.84 32.4001 934.216 32.9441ZM913.912 44.2241C916.088 44.2241 918.232 43.2161 920.344 41.2001C922.488 39.1841 924.104 36.6561 925.192 33.6161C920.872 33.6161 917.208 34.3361 914.2 35.7761C911.224 37.2481 909.736 39.0241 909.736 41.1041C909.736 42.0641 910.104 42.8161 910.84 43.3601C911.608 43.9361 912.632 44.2241 913.912 44.2241ZM995.232 23.8721L995.184 25.7441L992.544 25.8401C992.16 28.0801 991.536 29.8881 990.672 31.2641C989.84 32.6401 988.432 34.1281 986.448 35.7281C984.464 37.3281 982.08 38.6561 979.296 39.7121C976.544 40.8001 974.24 41.3441 972.384 41.3441C970.528 41.3441 969.12 40.9601 968.16 40.1921C967.2 39.4561 966.72 38.4801 966.72 37.2641C966.72 35.4081 967.808 33.5521 969.984 31.6961C972.192 29.8081 974.848 28.2401 977.952 26.9921C981.088 25.7121 984.192 24.8481 987.264 24.4001C986.784 23.6001 986.048 22.9441 985.056 22.4321C984.096 21.9201 982.448 21.3441 980.112 20.7041C978.832 20.3521 978.192 19.7761 978.192 18.9761C978.192 18.4961 978.384 18.0641 978.768 17.6801C979.184 17.2641 979.856 16.7841 980.784 16.2401C981.744 15.6641 982.64 15.0881 983.472 14.5121C984.336 13.9041 985.28 13.1841 986.304 12.3521C987.36 11.5201 988.24 10.6561 988.944 9.76006C989.648 8.86406 990 8.08006 990 7.40806C990 6.28806 989.44 5.72806 988.32 5.72806C987.456 5.72806 986.272 6.14406 984.768 6.97606C983.296 7.77606 981.84 8.81606 980.4 10.0961L978.336 16.6241C976.896 21.2001 975.296 24.7521 973.536 27.2801C971.808 29.8081 970.16 31.0721 968.592 31.0721C966.928 31.0721 966.096 30.0481 966.096 28.0001C966.096 25.9521 967.088 23.3441 969.072 20.1761C971.056 16.9761 973.808 13.6961 977.328 10.3361C977.328 10.3041 977.408 10.0161 977.568 9.47206C977.76 8.89606 977.936 8.32006 978.096 7.74406C978.64 6.01606 979.056 4.91206 979.344 4.43206L981.696 4.81606C981.696 5.42406 981.568 6.14406 981.312 6.97606C983.104 5.63206 984.992 4.46406 986.976 3.47206C988.992 2.44806 990.464 1.93606 991.392 1.93606C992.352 1.93606 993.12 2.24006 993.696 2.84806C994.272 3.42406 994.56 4.28806 994.56 5.44006C994.56 6.56006 994.016 7.85606 992.928 9.32806C991.872 10.8001 990.544 12.1281 988.944 13.3121C986.032 15.4881 983.552 17.0561 981.504 18.0161C984.832 18.5281 987.264 19.2161 988.8 20.0801C990.336 20.9121 991.456 22.1761 992.16 23.8721H995.232ZM971.904 24.9761C974.144 21.3601 975.632 17.6481 976.368 13.8401C974.64 15.7281 973.072 17.8881 971.664 20.3201C970.256 22.7521 969.552 24.5121 969.552 25.6001C969.552 26.2721 969.776 26.6081 970.224 26.6081C970.704 26.6081 971.264 26.0641 971.904 24.9761ZM983.04 35.2481C984.608 34.1921 985.856 33.0081 986.784 31.6961C987.712 30.3841 988.176 29.1521 988.176 28.0001C988.176 27.4561 988.096 26.9121 987.936 26.3681C983.136 26.9441 979.184 28.2081 976.08 30.1601C972.976 32.0801 971.424 33.9201 971.424 35.6801C971.424 36.4481 971.728 37.0561 972.336 37.5041C972.944 37.9841 973.776 38.2241 974.832 38.2241C977.424 38.2241 980.16 37.2321 983.04 35.2481ZM1030.46 8.94406V11.2481C1029.02 12.0801 1026.37 13.2161 1022.5 14.6561C1020.77 18.9761 1018.03 22.9921 1014.29 26.7041C1010.54 30.4161 1007.12 32.2721 1004.02 32.2721C1002.26 32.2721 1000.83 31.6481 999.744 30.4001C998.656 29.1521 998.112 27.4401 998.112 25.2641C998.112 23.0561 998.848 20.4161 1000.32 17.3441C1001.79 14.2401 1003.73 11.3441 1006.13 8.65606C1008.53 5.93606 1010.98 3.93606 1013.47 2.65606C1014.5 1.98406 1016.1 1.64806 1018.27 1.64806C1019.9 1.64806 1021.23 2.28806 1022.26 3.56806C1023.31 4.81606 1023.84 6.30406 1023.84 8.03206C1023.84 9.72806 1023.71 11.0081 1023.46 11.8721C1025.89 11.0721 1028.22 10.0961 1030.46 8.94406ZM1011.41 7.26406C1010.35 8.35206 1009.82 9.40806 1009.82 10.4321C1009.82 11.4241 1010.34 12.2241 1011.36 12.8321C1012.38 13.4081 1013.66 13.6961 1015.2 13.6961C1016.77 13.6961 1018.13 13.5521 1019.28 13.2641C1019.47 12.3041 1019.57 11.3761 1019.57 10.4801C1019.57 7.31206 1018.21 5.72806 1015.49 5.72806C1014.24 5.72806 1012.88 6.24006 1011.41 7.26406ZM1012.03 25.4081C1015.17 22.3041 1017.36 19.0721 1018.61 15.7121C1017.81 15.8721 1016.78 15.9521 1015.54 15.9521C1010.16 15.9521 1007.12 14.7521 1006.42 12.3521C1003.73 16.0961 1002.38 19.7761 1002.38 23.3921C1002.38 24.8321 1002.72 25.9841 1003.39 26.8481C1004.1 27.7121 1005.12 28.1441 1006.46 28.1441C1008.35 28.1441 1010.21 27.2321 1012.03 25.4081ZM1063.79 8.94406V11.2481C1062.35 12.0801 1059.7 13.2161 1055.82 14.6561C1054.1 18.9761 1051.36 22.9921 1047.62 26.7041C1043.87 30.4161 1040.45 32.2721 1037.34 32.2721C1035.58 32.2721 1034.16 31.6481 1033.07 30.4001C1031.98 29.1521 1031.44 27.4401 1031.44 25.2641C1031.44 23.0561 1032.18 20.4161 1033.65 17.3441C1035.12 14.2401 1037.06 11.3441 1039.46 8.65606C1041.86 5.93606 1044.3 3.93606 1046.8 2.65606C1047.82 1.98406 1049.42 1.64806 1051.6 1.64806C1053.23 1.64806 1054.56 2.28806 1055.58 3.56806C1056.64 4.81606 1057.17 6.30406 1057.17 8.03206C1057.17 9.72806 1057.04 11.0081 1056.78 11.8721C1059.22 11.0721 1061.55 10.0961 1063.79 8.94406ZM1044.74 7.26406C1043.68 8.35206 1043.15 9.40806 1043.15 10.4321C1043.15 11.4241 1043.66 12.2241 1044.69 12.8321C1045.71 13.4081 1046.99 13.6961 1048.53 13.6961C1050.1 13.6961 1051.46 13.5521 1052.61 13.2641C1052.8 12.3041 1052.9 11.3761 1052.9 10.4801C1052.9 7.31206 1051.54 5.72806 1048.82 5.72806C1047.57 5.72806 1046.21 6.24006 1044.74 7.26406ZM1045.36 25.4081C1048.5 22.3041 1050.69 19.0721 1051.94 15.7121C1051.14 15.8721 1050.11 15.9521 1048.86 15.9521C1043.49 15.9521 1040.45 14.7521 1039.74 12.3521C1037.06 16.0961 1035.71 19.7761 1035.71 23.3921C1035.71 24.8321 1036.05 25.9841 1036.72 26.8481C1037.42 27.7121 1038.45 28.1441 1039.79 28.1441C1041.68 28.1441 1043.54 27.2321 1045.36 25.4081ZM1084.88 5.92006L1078.02 5.77606C1071.01 5.77606 1067.5 7.31206 1067.5 10.3841C1067.5 11.1841 1067.79 11.8401 1068.37 12.3521C1068.98 12.8321 1069.87 13.0721 1071.06 13.0721C1072.24 13.0721 1073.79 12.5281 1075.71 11.4401L1076.43 12.6881C1075.44 13.7441 1074.32 14.5761 1073.07 15.1841C1071.82 15.7921 1070.58 16.0961 1069.33 16.0961C1068.08 16.0961 1067.01 15.6801 1066.11 14.8481C1065.22 14.0161 1064.77 12.9761 1064.77 11.7281C1064.77 9.20006 1066.13 6.99206 1068.85 5.10406C1071.6 3.21606 1075.31 2.27206 1079.98 2.27206C1080.37 2.27206 1081.74 2.33606 1084.11 2.46406C1086.48 2.59206 1088.35 2.65606 1089.73 2.65606C1091.1 2.65606 1092.37 2.44806 1093.52 2.03206C1093.97 1.90406 1094.24 1.84006 1094.34 1.84006C1094.78 1.84006 1095.01 2.12806 1095.01 2.70406C1095.01 3.53606 1094.27 4.28806 1092.8 4.96006C1091.36 5.63206 1089.7 5.96806 1087.81 5.96806C1085.7 8.01606 1083.84 11.6001 1082.24 16.7201C1080.67 21.8081 1078.78 25.6961 1076.58 28.3841C1074.4 31.0401 1071.81 32.3681 1068.8 32.3681C1067.62 32.3681 1066.5 31.9841 1065.44 31.2161L1066.54 29.3921C1066.93 29.5841 1067.36 29.7601 1067.84 29.9201L1068.51 30.0161C1068.67 30.0481 1068.91 30.0641 1069.23 30.0641C1070.83 30.0641 1072.26 29.2961 1073.5 27.7601C1074.78 26.2241 1076.11 23.3281 1077.49 19.0721C1078.9 14.7841 1079.98 11.9521 1080.75 10.5761C1081.55 9.16806 1082.93 7.61606 1084.88 5.92006Z" fill="#3A3A3A"/>
<path d="M1115.45 34.5601C1114.39 34.5601 1113.42 34.3041 1112.52 33.7921C1111.66 33.2801 1110.97 32.5921 1110.46 31.7281C1109.94 30.8321 1109.69 29.8561 1109.69 28.8001V5.76006C1109.69 4.70406 1109.94 3.74406 1110.46 2.88006C1110.97 1.98406 1111.66 1.28006 1112.52 0.768056C1113.42 0.256057 1114.39 5.72205e-05 1115.45 5.72205e-05H1138.49C1139.54 5.72205e-05 1140.5 0.256057 1141.37 0.768056C1142.26 1.28006 1142.97 1.98406 1143.48 2.88006C1143.99 3.74406 1144.25 4.70406 1144.25 5.76006V7.15206H1140.36V5.76006C1140.36 5.24806 1140.17 4.81606 1139.78 4.46406C1139.43 4.08006 1139 3.88806 1138.49 3.88806H1115.45C1114.94 3.88806 1114.49 4.08006 1114.1 4.46406C1113.75 4.81606 1113.58 5.24806 1113.58 5.76006V28.8001C1113.58 29.3121 1113.75 29.7601 1114.1 30.1441C1114.49 30.4961 1114.94 30.6721 1115.45 30.6721H1138.49C1139 30.6721 1139.43 30.4961 1139.78 30.1441C1140.17 29.7601 1140.36 29.3121 1140.36 28.8001V20.2561H1131.82V16.3201H1144.25V28.8001C1144.25 29.8561 1143.99 30.8321 1143.48 31.7281C1142.97 32.5921 1142.26 33.2801 1141.37 33.7921C1140.5 34.3041 1139.54 34.5601 1138.49 34.5601H1115.45ZM1150.01 34.5601V5.72205e-05H1153.95V34.5601H1150.01ZM1173.43 34.5601V3.88806H1158.07V5.72205e-05H1192.63V3.88806H1177.32V34.5601H1173.43Z" fill="#3A3A3A"/>
</svg>
