<svg width="383" height="76" viewBox="0 0 383 76" fill="none" xmlns="http://www.w3.org/2000/svg">
<path d="M7.65039 23C6.1582 23 4.99023 22.7852 4.14648 22.3555C3.31055 21.9258 2.79102 21.0859 2.58789 19.8359C2.46289 19.0938 2.40039 18.1484 2.40039 17V16.25H4.65039V17C4.65039 18.7812 4.86914 19.9453 5.30664 20.4922C5.54883 20.7891 5.86133 20.9766 6.24414 21.0547C6.63477 21.1328 7.10352 21.1719 7.65039 21.1719H12.9004C14.252 21.1719 15.2129 20.9336 15.7832 20.457C16.3613 19.9727 16.6504 19.0703 16.6504 17.75V5H18.9004V17.75C18.9004 19.6562 18.4629 21 17.5879 21.7812C16.6816 22.5938 15.1191 23 12.9004 23H7.65039ZM21.7598 23L32.2598 5H35.2598L45.7598 23H43.1348L40.8848 18.875H26.6348L24.3848 23H21.7598ZM27.7598 17H39.7598L33.7598 6.5L27.7598 17ZM57.0098 23L47.3066 5H49.8848L58.5098 21.4062L67.1348 5H69.6777L60.0098 23H57.0098ZM71.2598 23L81.7598 5H84.7598L95.2598 23H92.6348L90.3848 18.875H76.1348L73.8848 23H71.2598ZM77.2598 17H89.2598L83.2598 6.5L77.2598 17ZM117.42 17.7969C117.42 17.1016 117.365 16.5547 117.256 16.1562C117.146 15.7578 116.9 15.4648 116.518 15.2773C116.135 15.082 115.541 14.957 114.736 14.9023C113.932 14.8398 112.83 14.7969 111.432 14.7734L104.916 14.6797C103.307 14.6562 102.014 14.5586 101.037 14.3867C100.061 14.2148 99.3223 13.9453 98.8223 13.5781C98.3223 13.2031 97.9863 12.7031 97.8145 12.0781C97.6504 11.4531 97.5684 10.6719 97.5684 9.73438C97.5684 8.71094 97.6816 7.86719 97.9082 7.20312C98.1426 6.53906 98.5605 6.01953 99.1621 5.64453C99.7715 5.26953 100.631 5.00781 101.74 4.85938C102.85 4.70313 104.283 4.625 106.041 4.625H111.057C112.65 4.625 113.979 4.67578 115.041 4.77734C116.104 4.87891 116.947 5.11328 117.572 5.48047C118.197 5.84766 118.643 6.41797 118.908 7.19141C119.182 7.96484 119.318 9.02734 119.318 10.3789H117.068C117.068 9.33203 116.967 8.54297 116.764 8.01172C116.568 7.47266 116.24 7.10547 115.779 6.91016C115.326 6.71484 114.713 6.60937 113.939 6.59375C113.166 6.57813 112.205 6.57031 111.057 6.57031H106.158C104.76 6.57031 103.639 6.59766 102.795 6.65234C101.959 6.70703 101.326 6.83203 100.896 7.02734C100.467 7.22266 100.178 7.53516 100.029 7.96484C99.8887 8.39453 99.8184 8.98438 99.8184 9.73438C99.8184 10.3672 99.8691 10.875 99.9707 11.2578C100.072 11.6406 100.299 11.9336 100.65 12.1367C101.01 12.332 101.561 12.4688 102.303 12.5469C103.045 12.6172 104.057 12.6602 105.338 12.6758L112.322 12.7695C113.963 12.793 115.271 12.8906 116.248 13.0625C117.232 13.2266 117.967 13.4961 118.451 13.8711C118.943 14.2461 119.268 14.7539 119.424 15.3945C119.588 16.0273 119.67 16.8281 119.67 17.7969C119.67 18.8516 119.568 19.7383 119.365 20.457C119.17 21.168 118.787 21.7383 118.217 22.168C117.646 22.5977 116.822 22.9062 115.744 23.0938C114.666 23.2812 113.248 23.375 111.49 23.375H106.006C104.404 23.375 103.061 23.3047 101.975 23.1641C100.889 23.0234 100.021 22.7422 99.373 22.3203C98.7324 21.8906 98.2715 21.2539 97.9902 20.4102C97.709 19.5664 97.5684 18.4414 97.5684 17.0352H99.8184C99.8184 18.1367 99.9082 18.9883 100.088 19.5898C100.268 20.1914 100.58 20.625 101.025 20.8906C101.479 21.1484 102.107 21.3047 102.912 21.3594C103.725 21.4062 104.756 21.4297 106.006 21.4297H111.373C112.771 21.4297 113.877 21.3867 114.689 21.3008C115.502 21.207 116.104 21.0352 116.494 20.7852C116.885 20.5273 117.135 20.1602 117.244 19.6836C117.361 19.207 117.42 18.5781 117.42 17.7969ZM122.611 14.2344V13.7656C122.611 12.1719 122.689 10.8359 122.846 9.75781C123.002 8.67188 123.271 7.78906 123.654 7.10938C124.037 6.42969 124.557 5.91016 125.213 5.55078C125.877 5.19141 126.709 4.94922 127.709 4.82422C128.709 4.69141 129.912 4.625 131.318 4.625H136.041C137.65 4.625 139.006 4.70313 140.107 4.85938C141.217 5.00781 142.107 5.30859 142.779 5.76172C143.459 6.20703 143.951 6.86719 144.256 7.74219C144.561 8.60938 144.713 9.76172 144.713 11.1992H142.463C142.463 10.0664 142.361 9.1875 142.158 8.5625C141.955 7.92969 141.611 7.47266 141.127 7.19141C140.65 6.91016 139.998 6.73828 139.17 6.67578C138.342 6.60547 137.299 6.57031 136.041 6.57031H131.318C130.201 6.57031 129.26 6.60547 128.494 6.67578C127.729 6.73828 127.104 6.89062 126.619 7.13281C126.143 7.36719 125.775 7.74219 125.518 8.25781C125.268 8.77344 125.096 9.47656 125.002 10.3672C124.908 11.2578 124.861 12.3906 124.861 13.7656V14.2344C124.861 15.5625 124.908 16.6641 125.002 17.5391C125.096 18.4141 125.268 19.1133 125.518 19.6367C125.775 20.1602 126.143 20.5508 126.619 20.8086C127.104 21.0664 127.729 21.2344 128.494 21.3125C129.26 21.3906 130.201 21.4297 131.318 21.4297H136.041C137.299 21.4297 138.342 21.4023 139.17 21.3477C139.998 21.293 140.65 21.1328 141.127 20.8672C141.611 20.6016 141.955 20.1602 142.158 19.543C142.361 18.918 142.463 18.043 142.463 16.918H144.713C144.713 18.3555 144.561 19.5039 144.256 20.3633C143.951 21.2227 143.459 21.8711 142.779 22.3086C142.107 22.7383 141.217 23.0234 140.107 23.1641C139.006 23.3047 137.65 23.375 136.041 23.375H131.318C129.561 23.375 128.115 23.2539 126.982 23.0117C125.85 22.7773 124.963 22.3398 124.322 21.6992C123.689 21.0586 123.244 20.1367 122.986 18.9336C122.736 17.7305 122.611 16.1641 122.611 14.2344ZM148.557 5H160.604C162.361 5 163.775 5.07813 164.846 5.23438C165.924 5.39062 166.74 5.66016 167.295 6.04297C167.85 6.42578 168.225 6.94922 168.42 7.61328C168.615 8.27734 168.713 9.11719 168.713 10.1328V10.6016C168.713 11.5391 168.6 12.3477 168.373 13.0273C168.154 13.6992 167.729 14.2461 167.096 14.668C166.463 15.082 165.525 15.375 164.283 15.5469L168.197 23H165.947L162.115 15.7109C161.959 15.7188 161.795 15.7227 161.623 15.7227C161.459 15.7227 161.287 15.7227 161.107 15.7227H150.807V23H148.557V5ZM150.807 13.7773H160.756C162.092 13.7773 163.143 13.7344 163.908 13.6484C164.682 13.5547 165.248 13.3945 165.607 13.168C165.975 12.9414 166.209 12.6211 166.311 12.207C166.412 11.793 166.463 11.2578 166.463 10.6016V10.1328C166.463 9.39062 166.393 8.80469 166.252 8.375C166.111 7.94531 165.83 7.62891 165.408 7.42578C164.986 7.22266 164.357 7.09375 163.521 7.03906C162.686 6.97656 161.568 6.94531 160.17 6.94531H150.807V13.7773ZM172.979 23V5H175.229V23H172.979ZM179.775 23V5H191.822C193.58 5 194.994 5.08594 196.064 5.25781C197.143 5.42969 197.959 5.71875 198.514 6.125C199.068 6.52344 199.443 7.06641 199.639 7.75391C199.834 8.43359 199.932 9.28125 199.932 10.2969V10.7656C199.932 11.7344 199.83 12.5586 199.627 13.2383C199.432 13.9102 199.049 14.4531 198.479 14.8672C197.908 15.2812 197.084 15.5859 196.006 15.7812C194.928 15.9688 193.51 16.0625 191.752 16.0625H182.025V23H179.775ZM197.682 10.2969C197.682 9.55469 197.611 8.96094 197.471 8.51562C197.33 8.07031 197.049 7.73437 196.627 7.50781C196.205 7.28125 195.576 7.13281 194.74 7.0625C193.904 6.98437 192.787 6.94531 191.389 6.94531H182.025V14.1172H191.389C192.787 14.1172 193.904 14.0742 194.74 13.9883C195.576 13.8945 196.205 13.7305 196.627 13.4961C197.049 13.2539 197.33 12.9141 197.471 12.4766C197.611 12.0312 197.682 11.4609 197.682 10.7656V10.2969ZM210.924 23V6.875H201.924V5H222.174V6.875H213.174V23H210.924Z" fill="#3A3A3A"/>
<path d="M230.446 15.4545H227.173V22H223.9V5.63636H233.719V12.1818H230.446V8.90909H227.173V12.1818H230.446V15.4545ZM230.446 15.4545H233.719V22H230.446V15.4545ZM240.251 18.7273H246.797V22H236.979V5.63636H246.797V8.90909H240.251V12.1818H243.524V15.4545H240.251V18.7273ZM253.329 5.63636H256.602V8.90909H253.329V5.63636ZM253.329 12.1818H256.602V8.90909H259.875V22H256.602V15.4545H253.329V22H250.057V8.90909H253.329V12.1818ZM266.407 18.7273H269.68V22H263.135V5.63636H269.68V8.90909H266.407V18.7273ZM276.216 8.90909H272.943V5.63636H282.762V8.90909H279.489V22H276.216V8.90909ZM286.021 18.7273H289.294V22H286.021V18.7273ZM295.833 5.63636H299.106V18.7273H295.833V5.63636ZM292.561 18.7273H295.833V22H292.561V18.7273ZM302.369 18.7273H308.915V15.4545H302.369V5.63636H312.187V8.90909H305.642V12.1818H312.187V22H302.369V18.7273Z" fill="#3A3A3A"/>
<path d="M324.884 22.24C323.572 22.24 322.444 22.016 321.5 21.568C320.572 21.104 319.86 20.472 319.364 19.672C318.868 18.872 318.62 17.96 318.62 16.936C318.62 15.864 318.924 15.024 319.532 14.416C320.156 13.792 320.932 13.48 321.86 13.48C322.772 13.48 323.516 13.752 324.092 14.296C324.668 14.84 324.956 15.56 324.956 16.456C324.956 16.552 324.908 16.6 324.812 16.6C324.716 16.6 324.668 16.552 324.668 16.456C324.668 15.64 324.404 14.992 323.876 14.512C323.364 14.016 322.692 13.768 321.86 13.768C321.012 13.768 320.308 14.048 319.748 14.608C319.188 15.168 318.908 15.944 318.908 16.936C318.908 18.424 319.428 19.632 320.468 20.56C321.524 21.488 322.996 21.952 324.884 21.952C326.756 21.952 328.212 21.456 329.252 20.464C330.308 19.472 330.836 18.056 330.836 16.216V5.824C330.836 5.12 330.644 4.576 330.26 4.192C329.876 3.808 329.332 3.616 328.628 3.616H327.188C326.484 3.616 325.932 3.808 325.532 4.192C325.148 4.576 324.956 5.12 324.956 5.824V8.776C324.956 8.872 324.908 8.92 324.812 8.92C324.716 8.92 324.668 8.872 324.668 8.776V5.824C324.668 5.024 324.892 4.408 325.34 3.976C325.788 3.544 326.404 3.328 327.188 3.328H328.628C329.428 3.328 330.044 3.552 330.476 4C330.908 4.432 331.124 5.04 331.124 5.824V16.216C331.124 18.136 330.572 19.624 329.468 20.68C328.364 21.72 326.836 22.24 324.884 22.24ZM345.622 22.24C345.03 22.224 344.454 22.056 343.894 21.736C343.35 21.416 342.918 20.856 342.598 20.056L341.71 17.896H340.198C340.118 17.896 340.078 17.848 340.078 17.752C340.078 17.656 340.118 17.608 340.198 17.608H341.83C341.878 17.608 341.918 17.64 341.95 17.704L342.862 19.96C343.15 20.68 343.542 21.192 344.038 21.496C344.55 21.784 345.078 21.936 345.622 21.952C346.182 21.936 346.726 21.84 347.254 21.664C347.798 21.472 348.246 21.176 348.598 20.776C348.966 20.376 349.158 19.864 349.174 19.24C349.19 18.76 349.134 18.336 349.006 17.968C348.894 17.584 348.782 17.256 348.67 16.984L344.374 5.92C344.086 5.168 343.654 4.592 343.078 4.192C342.518 3.792 341.846 3.584 341.062 3.568C340.198 3.568 339.486 3.776 338.926 4.192C338.366 4.592 337.934 5.168 337.63 5.92L332.926 17.944C332.734 18.44 332.678 18.936 332.758 19.432C332.838 19.928 333.03 20.376 333.334 20.776C333.638 21.16 334.03 21.44 334.51 21.616L335.278 21.904C335.374 21.936 335.406 22 335.374 22.096C335.342 22.176 335.27 22.2 335.158 22.168L334.39 21.88C333.862 21.672 333.43 21.352 333.094 20.92C332.774 20.488 332.566 20 332.47 19.456C332.39 18.912 332.454 18.376 332.662 17.848L337.366 5.824C337.686 5.008 338.15 4.384 338.758 3.952C339.382 3.504 340.15 3.28 341.062 3.28C341.894 3.296 342.622 3.52 343.246 3.952C343.87 4.384 344.334 5.008 344.638 5.824L348.934 16.888C349.046 17.16 349.166 17.496 349.294 17.896C349.422 18.296 349.478 18.744 349.462 19.24C349.446 19.928 349.238 20.496 348.838 20.944C348.454 21.392 347.966 21.72 347.374 21.928C346.798 22.136 346.214 22.24 345.622 22.24ZM356.822 22.24C356.454 22.24 356.046 22.168 355.598 22.024C355.166 21.88 354.75 21.64 354.35 21.304C353.966 20.952 353.638 20.48 353.366 19.888L348.326 8.512C347.878 7.504 347.782 6.536 348.038 5.608C348.31 4.68 348.934 4 349.91 3.568L350.294 3.4C351.334 2.936 352.27 2.936 353.102 3.4C353.95 3.848 354.582 4.576 354.998 5.584C355.03 5.632 355.022 5.68 354.974 5.728C354.942 5.76 354.902 5.776 354.854 5.776C354.774 5.776 354.726 5.744 354.71 5.68C354.31 4.752 353.742 4.08 353.006 3.664C352.27 3.232 351.406 3.232 350.414 3.664L350.03 3.832C349.118 4.232 348.55 4.864 348.326 5.728C348.102 6.592 348.19 7.488 348.59 8.416L353.63 19.792C353.998 20.608 354.486 21.176 355.094 21.496C355.702 21.8 356.278 21.952 356.822 21.952C357.366 21.952 357.95 21.8 358.574 21.496C359.198 21.192 359.686 20.624 360.038 19.792L364.814 8.44C365.214 7.512 365.302 6.624 365.078 5.776C364.854 4.912 364.294 4.272 363.398 3.856L363.038 3.688C362.398 3.384 361.782 3.28 361.19 3.376C360.598 3.472 360.078 3.72 359.63 4.12C359.182 4.52 358.83 5.032 358.574 5.656L356.366 11.128C356.35 11.176 356.31 11.2 356.246 11.2C356.118 11.2 356.07 11.144 356.102 11.032L358.31 5.56C358.582 4.872 358.966 4.312 359.462 3.88C359.958 3.448 360.518 3.184 361.142 3.088C361.782 2.992 362.446 3.104 363.134 3.424L363.494 3.592C364.47 4.04 365.086 4.72 365.342 5.632C365.598 6.544 365.51 7.512 365.078 8.536L360.302 19.888C360.046 20.496 359.71 20.976 359.294 21.328C358.894 21.664 358.478 21.896 358.046 22.024C357.614 22.168 357.206 22.24 356.822 22.24ZM377.098 22.24C376.506 22.224 375.93 22.056 375.37 21.736C374.826 21.416 374.394 20.856 374.074 20.056L373.186 17.896H371.674C371.594 17.896 371.554 17.848 371.554 17.752C371.554 17.656 371.594 17.608 371.674 17.608H373.306C373.354 17.608 373.394 17.64 373.426 17.704L374.338 19.96C374.626 20.68 375.018 21.192 375.514 21.496C376.026 21.784 376.554 21.936 377.098 21.952C377.658 21.936 378.202 21.84 378.73 21.664C379.274 21.472 379.722 21.176 380.074 20.776C380.442 20.376 380.634 19.864 380.65 19.24C380.666 18.76 380.61 18.336 380.482 17.968C380.37 17.584 380.258 17.256 380.146 16.984L375.85 5.92C375.562 5.168 375.13 4.592 374.554 4.192C373.994 3.792 373.322 3.584 372.538 3.568C371.674 3.568 370.962 3.776 370.402 4.192C369.842 4.592 369.41 5.168 369.106 5.92L364.402 17.944C364.21 18.44 364.154 18.936 364.234 19.432C364.314 19.928 364.506 20.376 364.81 20.776C365.114 21.16 365.506 21.44 365.986 21.616L366.754 21.904C366.85 21.936 366.882 22 366.85 22.096C366.818 22.176 366.746 22.2 366.634 22.168L365.866 21.88C365.338 21.672 364.906 21.352 364.57 20.92C364.25 20.488 364.042 20 363.946 19.456C363.866 18.912 363.93 18.376 364.138 17.848L368.842 5.824C369.162 5.008 369.626 4.384 370.234 3.952C370.858 3.504 371.626 3.28 372.538 3.28C373.37 3.296 374.098 3.52 374.722 3.952C375.346 4.384 375.81 5.008 376.114 5.824L380.41 16.888C380.522 17.16 380.642 17.496 380.77 17.896C380.898 18.296 380.954 18.744 380.938 19.24C380.922 19.928 380.714 20.496 380.314 20.944C379.93 21.392 379.442 21.72 378.85 21.928C378.274 22.136 377.69 22.24 377.098 22.24Z" fill="#848484"/>
<path d="M24.5704 52.855L27.7654 52.81V54.655C27.4054 54.595 26.9854 54.565 26.5054 54.565C26.0254 54.565 25.4854 54.595 24.8854 54.655C24.8854 56.965 23.7754 59.305 21.5554 61.675C19.3354 64.045 16.6504 65.965 13.5004 67.435C10.3804 68.935 7.47039 69.685 4.77039 69.685C3.36039 69.685 2.20539 69.325 1.30539 68.605C0.435391 67.885 0.000390561 66.94 0.000390561 65.77C0.000390561 64.03 1.15539 62.215 3.46539 60.325C5.77539 58.435 8.47539 56.875 11.5654 55.645C14.6554 54.415 17.4454 53.695 19.9354 53.485C19.6354 53.035 19.1704 52.645 18.5404 52.315C17.9104 51.985 16.6204 51.475 14.6704 50.785C12.7204 50.065 11.3404 49.285 10.5304 48.445C9.72039 47.575 9.31539 46.36 9.31539 44.8C9.31539 43.24 10.1554 41.455 11.8354 39.445C13.5154 37.435 15.4954 35.755 17.7754 34.405C20.0854 33.025 22.1104 32.335 23.8504 32.335C24.6304 32.335 25.2754 32.62 25.7854 33.19C26.2954 33.73 26.5504 34.405 26.5504 35.215C26.5504 36.535 25.7554 38.2 24.1654 40.21C22.5754 42.19 20.8054 43.705 18.8554 44.755L17.7754 43.225C18.9454 42.625 19.9654 41.695 20.8354 40.435C21.7354 39.145 22.1854 38.035 22.1854 37.105C22.1854 36.175 21.6904 35.71 20.7004 35.71C19.2904 35.71 17.6704 36.595 15.8404 38.365C14.0404 40.105 13.1404 41.74 13.1404 43.27C13.1404 44.32 13.4104 45.145 13.9504 45.745C14.4904 46.345 15.8554 47.095 18.0454 47.995C20.2354 48.865 21.7954 49.645 22.7254 50.335C23.6554 50.995 24.2704 51.835 24.5704 52.855ZM4.50039 64.6C4.50039 66.04 5.67039 66.76 8.01039 66.76C9.30039 66.76 10.9654 66.28 13.0054 65.32C15.0754 64.39 16.8904 63.07 18.4504 61.36C20.0404 59.68 20.8354 57.955 20.8354 56.185C20.8354 55.975 20.7904 55.66 20.7004 55.24C16.5904 55.63 12.8554 56.785 9.49539 58.705C6.16539 60.625 4.50039 62.59 4.50039 64.6ZM45.3583 36.25C47.8183 34.57 49.4983 33.55 50.3983 33.19C51.2983 32.8 52.3483 32.605 53.5483 32.605C54.7783 32.605 55.7233 33.025 56.3833 33.865C57.0433 34.705 57.3733 35.905 57.3733 37.465C57.3733 40.255 56.4733 43.255 54.6733 46.465C52.8733 49.675 50.6233 52.375 47.9233 54.565C45.2233 56.725 42.6733 57.805 40.2733 57.805C39.6733 57.805 38.9833 57.775 38.2033 57.715C36.7333 60.835 35.3983 63.19 34.1983 64.78C32.9983 66.37 31.7983 67.165 30.5983 67.165C29.8483 67.165 29.2633 66.895 28.8433 66.355C28.4233 65.815 28.2133 65.065 28.2133 64.105C28.2133 61.015 29.6383 56.89 32.4883 51.73C35.3383 46.54 38.4733 42.385 41.8933 39.265C42.3733 37.285 42.6133 35.845 42.6133 34.945C42.6133 34.015 42.5833 33.31 42.5233 32.83L45.7633 32.29C45.7633 32.5 45.6283 33.82 45.3583 36.25ZM35.0533 54.475L36.3133 55.105C38.2033 51.415 39.7933 47.275 41.0833 42.685C38.3233 46.135 36.0583 49.645 34.2883 53.215C32.5183 56.785 31.6333 59.53 31.6333 61.45C31.6333 62.02 31.8133 62.305 32.1733 62.305C32.4433 62.305 32.9233 61.75 33.6133 60.64C34.3033 59.5 34.8883 58.345 35.3683 57.175C34.9783 56.995 34.6033 56.725 34.2433 56.365L35.0533 54.475ZM39.1483 55.735L40.0033 55.78C42.9133 55.78 45.6433 54.25 48.1933 51.19C49.6333 49.42 50.8483 47.395 51.8383 45.115C52.8583 42.835 53.3683 40.9 53.3683 39.31C53.3683 38.44 53.1283 37.75 52.6483 37.24C52.1983 36.73 51.5683 36.475 50.7583 36.475C49.2883 36.475 47.3383 37.285 44.9083 38.905C44.3683 42.955 42.4483 48.565 39.1483 55.735ZM81.2324 63.925L81.4574 66.04C80.6174 66.19 79.8824 66.265 79.2524 66.265C77.8424 66.265 76.4924 65.32 75.2024 63.43C73.9124 61.57 72.8924 59.38 72.1424 56.86C71.4224 54.34 70.9724 51.91 70.7924 49.57C69.2924 53.47 67.8674 56.305 66.5174 58.075C65.1974 59.815 63.8324 60.685 62.4224 60.685C61.7024 60.685 61.1324 60.4 60.7124 59.83C60.2924 59.23 60.0824 58.45 60.0824 57.49C60.0824 55.27 61.1024 52.45 63.1424 49.03C65.2124 45.61 67.6274 42.805 70.3874 40.615C70.4474 40.435 70.7024 39.34 71.1524 37.33C71.6324 35.32 71.9174 34.21 72.0074 34L74.6174 33.775C74.6174 34.285 74.4824 35.35 74.2124 36.97C78.2624 33.88 81.5924 32.335 84.2024 32.335C85.4324 32.335 86.4074 32.68 87.1274 33.37C87.8474 34.03 88.2074 34.93 88.2074 36.07C88.2074 38.92 86.7674 41.8 83.8874 44.71C81.0074 47.59 77.9324 49.285 74.6624 49.795C74.9024 54.145 75.6524 57.55 76.9124 60.01C78.2024 62.47 79.6424 63.775 81.2324 63.925ZM68.1374 48.895C68.9474 46.735 69.5024 45.01 69.8024 43.72C68.1524 45.25 66.6224 47.29 65.2124 49.84C63.8324 52.39 63.1424 54.28 63.1424 55.51C63.1424 56.14 63.3974 56.455 63.9074 56.455C64.8074 56.455 66.2174 53.935 68.1374 48.895ZM71.1974 48.265C74.3774 48.265 77.2274 47.155 79.7474 44.935C82.2674 42.715 83.5274 40.51 83.5274 38.32C83.5274 37.51 83.3174 36.88 82.8974 36.43C82.5074 35.98 81.8774 35.755 81.0074 35.755C80.1374 35.755 78.8774 36.25 77.2274 37.24C75.5774 38.2 74.3924 38.995 73.6724 39.625C72.7424 43.315 71.9174 46.195 71.1974 48.265ZM113.802 33.28C114.312 33.43 114.567 33.7 114.567 34.09C114.567 34.21 114.387 34.48 114.027 34.9C112.647 36.67 111.672 37.99 111.102 38.86C110.562 39.73 109.902 41.185 109.122 43.225C108.372 45.265 107.682 47.23 107.052 49.12C106.452 50.98 106.152 51.925 106.152 51.955C104.922 54.715 103.227 56.89 101.067 58.48C98.9069 60.07 96.6419 60.865 94.2719 60.865C92.5919 60.865 91.2269 60.46 90.1769 59.65C89.1569 58.81 88.6469 57.7 88.6469 56.32C88.6469 54.16 90.0419 52.18 92.8319 50.38C95.6219 48.58 98.4119 47.68 101.202 47.68L101.382 49.165C99.1619 49.615 97.2419 50.44 95.6219 51.64C94.0319 52.84 93.2369 54.145 93.2369 55.555C93.2369 56.455 93.4919 57.19 94.0019 57.76C94.5419 58.33 95.2169 58.615 96.0269 58.615C97.5569 58.615 98.8769 57.91 99.9869 56.5C101.097 55.06 102.222 52.525 103.362 48.895C104.532 45.265 105.582 42.61 106.512 40.93C107.472 39.25 108.672 37.84 110.112 36.7C109.692 36.67 109.227 36.655 108.717 36.655C106.137 36.655 103.617 37.06 101.157 37.87C98.7269 38.68 97.5119 39.76 97.5119 41.11C97.5119 41.95 97.8869 42.745 98.6369 43.495L97.6469 44.71C95.6369 43.3 94.6319 41.665 94.6319 39.805C94.6319 38.575 95.1569 37.51 96.2069 36.61C97.2869 35.71 98.7269 35.02 100.527 34.54C103.977 33.61 107.847 33.145 112.137 33.145C113.067 33.145 113.622 33.19 113.802 33.28ZM144.084 33.505L146.694 33.82C146.154 36.16 145.419 38.905 144.489 42.055C143.589 45.175 142.764 47.71 142.014 49.66C141.264 51.58 140.439 53.5 139.539 55.42C138.669 57.31 137.739 58.81 136.749 59.92C135.759 61 134.799 61.54 133.869 61.54C132.939 61.54 132.249 61.195 131.799 60.505C131.379 59.815 131.169 58.6 131.169 56.86C131.169 55.09 131.424 51.4 131.934 45.79C132.444 40.15 132.699 37.09 132.699 36.61C132.729 36.1 132.609 35.845 132.339 35.845C132.009 35.845 131.619 36.31 131.169 37.24C130.719 38.14 130.374 38.83 130.134 39.31C129.504 40.72 129.099 41.71 128.919 42.28C127.239 46.06 125.739 49.18 124.419 51.64C123.099 54.1 121.584 56.38 119.874 58.48C119.274 59.2 118.419 59.935 117.309 60.685C116.199 61.435 115.164 62.005 114.204 62.395L113.214 59.74C115.704 58.69 117.954 56.875 119.964 54.295C121.974 51.685 124.044 48.055 126.174 43.405C128.334 38.755 129.879 35.62 130.809 34C131.859 32.29 132.924 31.435 134.004 31.435C134.694 31.435 135.234 31.675 135.624 32.155C136.014 32.635 136.209 33.265 136.209 34.045C136.209 34.795 135.939 37.945 135.399 43.495C134.889 49.045 134.634 52.6 134.634 54.16C134.634 55.72 134.694 56.74 134.814 57.22C134.964 57.67 135.204 57.895 135.534 57.895C135.954 57.895 136.404 57.445 136.884 56.545C138.534 53.335 140.934 45.655 144.084 33.505ZM169.853 61.36L169.178 62.89C166.238 62.38 164.543 62.11 164.093 62.08C162.623 66.07 160.523 69.22 157.793 71.53C155.063 73.84 152.003 74.995 148.613 74.995C146.783 74.995 145.253 74.5 144.023 73.51C142.793 72.52 142.178 71.29 142.178 69.82C142.178 67.24 143.948 64.975 147.488 63.025C151.058 61.075 155.378 60.1 160.448 60.1C161.138 60.1 161.663 60.115 162.023 60.145C162.563 59.005 162.998 57.79 163.328 56.5C161.408 57.79 159.353 58.435 157.163 58.435C155.003 58.435 153.188 57.67 151.718 56.14C150.278 54.58 149.558 52.54 149.558 50.02C149.558 47.47 150.398 44.8 152.078 42.01C153.788 39.19 156.023 36.865 158.783 35.035C161.573 33.205 164.408 32.29 167.288 32.29C168.968 32.29 170.558 32.59 172.058 33.19C173.558 33.76 174.683 34.45 175.433 35.26L173.003 38.185C171.773 37.225 170.903 36.58 170.393 36.25C169.073 35.35 167.663 34.9 166.163 34.9C163.073 34.9 160.208 36.4 157.568 39.4C154.928 42.37 153.608 45.61 153.608 49.12C153.608 51.04 154.148 52.555 155.228 53.665C156.308 54.775 157.718 55.33 159.458 55.33C161.228 55.33 162.818 54.91 164.228 54.07C165.968 49.48 167.588 47.185 169.088 47.185C169.958 47.185 170.393 47.605 170.393 48.445C170.393 49.285 170.063 50.26 169.403 51.37C168.773 52.45 167.948 53.425 166.928 54.295C165.698 57.595 164.978 59.575 164.768 60.235C166.868 60.475 168.563 60.85 169.853 61.36ZM150.818 71.935C152.858 71.935 154.868 70.99 156.848 69.1C158.858 67.21 160.373 64.84 161.393 61.99C157.343 61.99 153.908 62.665 151.088 64.015C148.298 65.395 146.903 67.06 146.903 69.01C146.903 69.91 147.248 70.615 147.938 71.125C148.658 71.665 149.618 71.935 150.818 71.935ZM227.056 52.855L227.011 54.61L224.536 54.7C224.176 56.8 223.591 58.495 222.781 59.785C222.001 61.075 220.681 62.47 218.821 63.97C216.961 65.47 214.726 66.715 212.116 67.705C209.536 68.725 207.376 69.235 205.636 69.235C203.896 69.235 202.576 68.875 201.676 68.155C200.776 67.465 200.326 66.55 200.326 65.41C200.326 63.67 201.346 61.93 203.386 60.19C205.456 58.42 207.946 56.95 210.856 55.78C213.796 54.58 216.706 53.77 219.586 53.35C219.136 52.6 218.446 51.985 217.516 51.505C216.616 51.025 215.071 50.485 212.881 49.885C211.681 49.555 211.081 49.015 211.081 48.265C211.081 47.815 211.261 47.41 211.621 47.05C212.011 46.66 212.641 46.21 213.511 45.7C214.411 45.16 215.251 44.62 216.031 44.08C216.841 43.51 217.726 42.835 218.686 42.055C219.676 41.275 220.501 40.465 221.161 39.625C221.821 38.785 222.151 38.05 222.151 37.42C222.151 36.37 221.626 35.845 220.576 35.845C219.766 35.845 218.656 36.235 217.246 37.015C215.866 37.765 214.501 38.74 213.151 39.94L211.216 46.06C209.866 50.35 208.366 53.68 206.716 56.05C205.096 58.42 203.551 59.605 202.081 59.605C200.521 59.605 199.741 58.645 199.741 56.725C199.741 54.805 200.671 52.36 202.531 49.39C204.391 46.39 206.971 43.315 210.271 40.165C210.271 40.135 210.346 39.865 210.496 39.355C210.676 38.815 210.841 38.275 210.991 37.735C211.501 36.115 211.891 35.08 212.161 34.63L214.366 34.99C214.366 35.56 214.246 36.235 214.006 37.015C215.686 35.755 217.456 34.66 219.316 33.73C221.206 32.77 222.586 32.29 223.456 32.29C224.356 32.29 225.076 32.575 225.616 33.145C226.156 33.685 226.426 34.495 226.426 35.575C226.426 36.625 225.916 37.84 224.896 39.22C223.906 40.6 222.661 41.845 221.161 42.955C218.431 44.995 216.106 46.465 214.186 47.365C217.306 47.845 219.586 48.49 221.026 49.3C222.466 50.08 223.516 51.265 224.176 52.855H227.056ZM205.186 53.89C207.286 50.5 208.681 47.02 209.371 43.45C207.751 45.22 206.281 47.245 204.961 49.525C203.641 51.805 202.981 53.455 202.981 54.475C202.981 55.105 203.191 55.42 203.611 55.42C204.061 55.42 204.586 54.91 205.186 53.89ZM215.626 63.52C217.096 62.53 218.266 61.42 219.136 60.19C220.006 58.96 220.441 57.805 220.441 56.725C220.441 56.215 220.366 55.705 220.216 55.195C215.716 55.735 212.011 56.92 209.101 58.75C206.191 60.55 204.736 62.275 204.736 63.925C204.736 64.645 205.021 65.215 205.591 65.635C206.161 66.085 206.941 66.31 207.931 66.31C210.361 66.31 212.926 65.38 215.626 63.52ZM260.085 38.86V41.02C258.735 41.8 256.245 42.865 252.615 44.215C250.995 48.265 248.43 52.03 244.92 55.51C241.41 58.99 238.2 60.73 235.29 60.73C233.64 60.73 232.305 60.145 231.285 58.975C230.265 57.805 229.755 56.2 229.755 54.16C229.755 52.09 230.445 49.615 231.825 46.735C233.205 43.825 235.02 41.11 237.27 38.59C239.52 36.04 241.815 34.165 244.155 32.965C245.115 32.335 246.615 32.02 248.655 32.02C250.185 32.02 251.43 32.62 252.39 33.82C253.38 34.99 253.875 36.385 253.875 38.005C253.875 39.595 253.755 40.795 253.515 41.605C255.795 40.855 257.985 39.94 260.085 38.86ZM242.22 37.285C241.23 38.305 240.735 39.295 240.735 40.255C240.735 41.185 241.215 41.935 242.175 42.505C243.135 43.045 244.335 43.315 245.775 43.315C247.245 43.315 248.52 43.18 249.6 42.91C249.78 42.01 249.87 41.14 249.87 40.3C249.87 37.33 248.595 35.845 246.045 35.845C244.875 35.845 243.6 36.325 242.22 37.285ZM242.805 54.295C245.745 51.385 247.8 48.355 248.97 45.205C248.22 45.355 247.26 45.43 246.09 45.43C241.05 45.43 238.2 44.305 237.54 42.055C235.02 45.565 233.76 49.015 233.76 52.405C233.76 53.755 234.075 54.835 234.705 55.645C235.365 56.455 236.325 56.86 237.585 56.86C239.355 56.86 241.095 56.005 242.805 54.295ZM291.33 38.86V41.02C289.98 41.8 287.49 42.865 283.86 44.215C282.24 48.265 279.675 52.03 276.165 55.51C272.655 58.99 269.445 60.73 266.535 60.73C264.885 60.73 263.55 60.145 262.53 58.975C261.51 57.805 261 56.2 261 54.16C261 52.09 261.69 49.615 263.07 46.735C264.45 43.825 266.265 41.11 268.515 38.59C270.765 36.04 273.06 34.165 275.4 32.965C276.36 32.335 277.86 32.02 279.9 32.02C281.43 32.02 282.675 32.62 283.635 33.82C284.625 34.99 285.12 36.385 285.12 38.005C285.12 39.595 285 40.795 284.76 41.605C287.04 40.855 289.23 39.94 291.33 38.86ZM273.465 37.285C272.475 38.305 271.98 39.295 271.98 40.255C271.98 41.185 272.46 41.935 273.42 42.505C274.38 43.045 275.58 43.315 277.02 43.315C278.49 43.315 279.765 43.18 280.845 42.91C281.025 42.01 281.115 41.14 281.115 40.3C281.115 37.33 279.84 35.845 277.29 35.845C276.12 35.845 274.845 36.325 273.465 37.285ZM274.05 54.295C276.99 51.385 279.045 48.355 280.215 45.205C279.465 45.355 278.505 45.43 277.335 45.43C272.295 45.43 269.445 44.305 268.785 42.055C266.265 45.565 265.005 49.015 265.005 52.405C265.005 53.755 265.32 54.835 265.95 55.645C266.61 56.455 267.57 56.86 268.83 56.86C270.6 56.86 272.34 56.005 274.05 54.295ZM311.101 36.025L304.666 35.89C298.096 35.89 294.811 37.33 294.811 40.21C294.811 40.96 295.081 41.575 295.621 42.055C296.191 42.505 297.031 42.73 298.141 42.73C299.251 42.73 300.706 42.22 302.506 41.2L303.181 42.37C302.251 43.36 301.201 44.14 300.031 44.71C298.861 45.28 297.691 45.565 296.521 45.565C295.351 45.565 294.346 45.175 293.506 44.395C292.666 43.615 292.246 42.64 292.246 41.47C292.246 39.1 293.521 37.03 296.071 35.26C298.651 33.49 302.131 32.605 306.511 32.605C306.871 32.605 308.161 32.665 310.381 32.785C312.601 32.905 314.356 32.965 315.646 32.965C316.936 32.965 318.121 32.77 319.201 32.38C319.621 32.26 319.876 32.2 319.966 32.2C320.386 32.2 320.596 32.47 320.596 33.01C320.596 33.79 319.906 34.495 318.526 35.125C317.176 35.755 315.616 36.07 313.846 36.07C311.866 37.99 310.126 41.35 308.626 46.15C307.156 50.92 305.386 54.565 303.316 57.085C301.276 59.575 298.846 60.82 296.026 60.82C294.916 60.82 293.866 60.46 292.876 59.74L293.911 58.03C294.271 58.21 294.676 58.375 295.126 58.525L295.756 58.615C295.906 58.645 296.131 58.66 296.431 58.66C297.931 58.66 299.266 57.94 300.436 56.5C301.636 55.06 302.881 52.345 304.171 48.355C305.491 44.335 306.511 41.68 307.231 40.39C307.981 39.07 309.271 37.615 311.101 36.025Z" fill="#3A3A3A"/>
<path d="M329.532 62C328.828 62 328.178 61.8293 327.58 61.488C327.004 61.1467 326.546 60.688 326.204 60.112C325.863 59.5147 325.692 58.864 325.692 58.16V42.8C325.692 42.096 325.863 41.456 326.204 40.88C326.546 40.2827 327.004 39.8133 327.58 39.472C328.178 39.1307 328.828 38.96 329.532 38.96H344.892C345.596 38.96 346.236 39.1307 346.812 39.472C347.41 39.8133 347.879 40.2827 348.22 40.88C348.562 41.456 348.732 42.096 348.732 42.8V43.728H346.14V42.8C346.14 42.4587 346.012 42.1707 345.756 41.936C345.522 41.68 345.234 41.552 344.892 41.552H329.532C329.191 41.552 328.892 41.68 328.636 41.936C328.402 42.1707 328.284 42.4587 328.284 42.8V58.16C328.284 58.5013 328.402 58.8 328.636 59.056C328.892 59.2907 329.191 59.408 329.532 59.408H344.892C345.234 59.408 345.522 59.2907 345.756 59.056C346.012 58.8 346.14 58.5013 346.14 58.16V52.464H340.444V49.84H348.732V58.16C348.732 58.864 348.562 59.5147 348.22 60.112C347.879 60.688 347.41 61.1467 346.812 61.488C346.236 61.8293 345.596 62 344.892 62H329.532ZM352.575 62V38.96H355.199V62H352.575ZM368.187 62V41.552H357.947V38.96H380.987V41.552H370.779V62H368.187Z" fill="#3A3A3A"/>
</svg>
