<svg width="43" height="46" viewBox="0 0 43 46" fill="none" xmlns="http://www.w3.org/2000/svg">
<path d="M40.8767 21.3244L22.4967 39.7044C20.245 41.9561 17.191 43.2211 14.0067 43.2211C10.8223 43.2211 7.76836 41.9561 5.51667 39.7044C3.26499 37.4528 2 34.3988 2 31.2144C2 28.0301 3.26499 24.9761 5.51667 22.7244L23.8967 4.34445C25.3978 2.84332 27.4338 2 29.5567 2C31.6796 2 33.7155 2.84332 35.2167 4.34445C36.7178 5.84557 37.5611 7.88154 37.5611 10.0044C37.5611 12.1274 36.7178 14.1633 35.2167 15.6644L16.8167 34.0444C16.0661 34.795 15.0481 35.2167 13.9867 35.2167C12.9252 35.2167 11.9072 34.795 11.1567 34.0444C10.4061 33.2939 9.98445 32.2759 9.98445 31.2144C9.98445 30.153 10.4061 29.135 11.1567 28.3844L28.1367 11.4244" stroke="#FCD500" stroke-width="4" stroke-linecap="round" stroke-linejoin="round"/>
</svg>
