<svg width="31" height="30" viewBox="0 0 31 30" fill="none" xmlns="http://www.w3.org/2000/svg">
<path d="M22.8333 10.6666H24.1667C25.5812 10.6666 26.9377 11.2285 27.9379 12.2287C28.9381 13.2289 29.5 14.5854 29.5 15.9999C29.5 17.4144 28.9381 18.771 27.9379 19.7712C26.9377 20.7713 25.5812 21.3333 24.1667 21.3333H22.8333M22.8333 10.6666H1.5V22.6666C1.5 24.0811 2.0619 25.4376 3.0621 26.4378C4.06229 27.438 5.41885 27.9999 6.83333 27.9999H17.5C18.9145 27.9999 20.271 27.438 21.2712 26.4378C22.2714 25.4376 22.8333 24.0811 22.8333 22.6666V10.6666ZM6.83333 1.33325V5.33325M12.1667 1.33325V5.33325M17.5 1.33325V5.33325" stroke="#FCD500" stroke-width="3" stroke-linecap="round" stroke-linejoin="round"/>
</svg>
