<svg width="32" height="32" viewBox="0 0 32 32" fill="none" xmlns="http://www.w3.org/2000/svg">
<path d="M32 19.6127V31.9922H25.1402V20.4457C25.1402 17.5416 24.1507 15.564 21.6657 15.564C19.7684 15.564 18.645 16.8954 18.1465 18.1878C17.9679 18.6472 17.9158 19.2934 17.9158 19.9397V32H11.056C11.056 32 11.1453 12.4341 11.056 10.4097H17.9158V13.4696C17.901 13.4929 17.8861 13.5163 17.8712 13.5397H17.9158V13.4696C18.831 11.9981 20.4529 9.90365 24.0986 9.90365C28.6147 9.89586 32 12.9869 32 19.6127ZM3.88375 0C1.53267 0 0 1.61168 0 3.72944C0 5.80049 1.48803 7.45888 3.79447 7.45888H3.83911C6.23483 7.45888 7.72286 5.80049 7.72286 3.72944C7.67077 1.61168 6.22739 0 3.88375 0ZM0.409207 32H7.26901V10.4019H0.409207V32Z" fill="#FCD500"/>
</svg>
