<svg width="70" height="64" viewBox="0 0 70 64" fill="none" xmlns="http://www.w3.org/2000/svg">
<g clip-path="url(#clip0_144_349)">
<path d="M34.9091 38.7725C38.5815 38.7725 41.5585 35.7404 41.5585 32C41.5585 28.2597 38.5815 25.2275 34.9091 25.2275C31.2368 25.2275 28.2598 28.2597 28.2598 32C28.2598 35.7404 31.2368 38.7725 34.9091 38.7725Z" fill="#087EA4"/>
<path d="M34.9089 47.2382C53.2705 47.2382 68.1556 40.4158 68.1556 32.0001C68.1556 23.5843 53.2705 16.762 34.9089 16.762C16.5472 16.762 1.66211 23.5843 1.66211 32.0001C1.66211 40.4158 16.5472 47.2382 34.9089 47.2382Z" stroke="#087EA4" stroke-width="3"/>
<path d="M21.9523 39.619C31.1331 55.8152 44.3765 65.5336 51.5323 61.3257C58.6881 57.1178 57.0464 40.5771 47.8656 24.3809C38.6847 8.18475 25.4413 -1.53366 18.2855 2.67422C11.1298 6.88211 12.7714 23.4228 21.9523 39.619Z" stroke="#087EA4" stroke-width="3"/>
<path d="M21.9526 24.3808C12.7718 40.577 11.1301 57.1177 18.2859 61.3256C25.4416 65.5335 38.685 55.8151 47.8659 39.6189C57.0467 23.4228 58.6884 6.88205 51.5326 2.67416C44.3769 -1.53372 31.1334 8.18469 21.9526 24.3808Z" stroke="#087EA4" stroke-width="3"/>
</g>
<defs>
<clipPath id="clip0_144_349">
<rect width="69.8182" height="64" fill="white"/>
</clipPath>
</defs>
</svg>
